<?xml version="1.0" encoding="UTF-8"?>
<!DOCTYPE svg PUBLIC "-//W3C//DTD SVG 1.1//EN" "http://www.w3.org/Graphics/SVG/1.1/DTD/svg11.dtd">
<!-- Creator: CorelDRAW -->
<svg xmlns="http://www.w3.org/2000/svg" xml:space="preserve" width="87.545mm" height="60.96mm" style="shape-rendering:geometricPrecision; text-rendering:geometricPrecision; image-rendering:optimizeQuality; fill-rule:evenodd; clip-rule:evenodd"
viewBox="0 0 87.545 60.96"
 xmlns:xlink="http://www.w3.org/1999/xlink">
 <defs>
  <style type="text/css">
   <![CDATA[
    .fil0 {fill:none}
    .fil1 {fill:#307ABD;fill-rule:nonzero}
    .fil6 {fill:#36ACE2;fill-rule:nonzero}
    .fil3 {fill:#45B653;fill-rule:nonzero}
    .fil2 {fill:#8FC74A;fill-rule:nonzero}
    .fil4 {fill:#F1613A;fill-rule:nonzero}
    .fil5 {fill:#F79633;fill-rule:nonzero}
   ]]>
  </style>
    <clipPath id="id0">
     <rect x="-0.0002" width="87.5453" height="60.96"/>
    </clipPath>
 </defs>
 <g id="Layer_x0020_1">
  <metadata id="CorelCorpID_0Corel-Layer"/>
  <g id="_558305584">
   <g style="clip-path:url(#id0)">
    <image id="_558299176" transform="matrix(1 0 0 1 -43.7727 30.48)" x="43.7725" y="-30.48" width="87.5453" height="60.96" xlink:href="illustration_Images\illustration_ImgID1.png"/>
   </g>
   <rect id="_558304288" class="fil0" x="37.4611" y="10.6232" width="18.4946" height="18.4946"/>
   <path id="_558303832" class="fil1" d="M42.2214 21.2234c0,0 -1.7861,0.9399 -1.5919,0.5926 0.4486,-0.802 1.5471,-2.101 0.4985,-4.262 -0.1518,-0.3124 0.9023,0.1868 1.5233,0.7345 0,0 0.0412,-1.1536 -2.2327,-2.3501 -0.3085,-0.1626 -0.8691,0.1958 -0.475,0.7721 0.4234,0.6191 0.9846,2.0766 0.7503,2.9043 -0.2001,0.7088 -0.873,1.673 -1.4616,2.5572 -0.2204,0.331 0.1602,0.8046 0.6996,0.6511 0,0 1.5695,-0.344 2.2895,-1.5997z"/>
   <path id="_558304312" class="fil1" d="M39.6235 18.2468c0.6085,0.3508 0.8164,1.129 0.4655,1.7371 -0.351,0.6082 -1.1292,0.8166 -1.7374,0.4659 -0.6086,-0.3516 -0.8164,-1.1296 -0.4655,-1.7378 0.3515,-0.6083 1.1292,-0.8165 1.7374,-0.4652z"/>
   <path id="_558303616" class="fil2" d="M45.6367 24.4327c0,0 -0.0793,2.0167 -0.2827,1.675 -0.4704,-0.7896 -1.0461,-2.3903 -3.4417,-2.5628 -0.3467,-0.0249 0.6129,-0.6879 1.3978,-0.952 0,0 -0.9785,-0.6124 -3.1518,0.7585 -0.2949,0.1858 -0.2649,0.8509 0.4312,0.7974 0.7478,-0.0568 2.2906,0.1856 2.8905,0.8024 0.5135,0.5276 1.0121,1.5926 1.484,2.5445 0.1761,0.3564 0.7764,0.2635 0.9133,-0.2804 0,0 0.4868,-1.5311 -0.2406,-2.7826z"/>
   <path id="_558303400" class="fil2" d="M41.7597 25.1941c0.6082,-0.3512 1.3863,-0.1427 1.7371,0.4653 0.3515,0.6084 0.143,1.3864 -0.4651,1.7378 -0.6086,0.3512 -1.3865,0.1424 -1.7375,-0.4657 -0.351,-0.6085 -0.1426,-1.3863 0.4655,-1.7374z"/>
   <path id="_558311152" class="fil3" d="M50.2809 24.1746c-0.8465,0.079 -1.9257,0.4133 -2.7884,1.6864 -0.1946,0.2879 -0.2891,-0.8746 -0.1253,-1.6863 0,0 -1.02,0.5411 -0.9191,3.1088 0.0134,0.3482 0.6043,0.6548 0.9064,0.0253 0.3242,-0.6762 1.3061,-1.8912 2.1398,-2.102 0.1782,-0.0452 0.4676,-0.0728 0.6939,-0.0878 0.0001,-0.0692 0.0055,-0.0444 0.014,-0.0978 0.0103,-0.0043 0.0041,-0.0103 0.0066,-0.0178 0.024,-0.0724 0.0508,-0.2516 0.052,-0.323 0.0027,-0.1606 0.0165,-0.3379 0.0201,-0.5058z"/>
   <path id="_558303232" class="fil3" d="M49.5228 27.9397c-0.4604,-0.1913 -0.7841,-0.6452 -0.7841,-1.1747 -0.0001,-0.7025 0.545,-1.2716 1.2473,-1.2716 0.1451,0 -0.1103,2.028 -0.4632,2.4463z"/>
   <path id="_558303016" class="fil4" d="M52.127 23.2792c0.2388,0.1674 0.5434,0.3506 0.8713,0.5231 0.3084,0.1627 0.8689,-0.196 0.4749,-0.7722 -0.4232,-0.6191 -0.9847,-2.0766 -0.7503,-2.9041 0.2001,-0.7089 0.873,-1.6733 1.4617,-2.5573 0.2203,-0.3309 -0.1605,-0.8046 -0.6999,-0.6511 0,0 -1.5695,0.344 -2.2893,1.5997 0,0 1.7861,-0.9399 1.5921,-0.5925 -0.4489,0.8019 -1.5476,2.1009 -0.4987,4.2616 0.1049,0.2161 -0.3663,0.0444 -0.8724,-0.2631 0.0018,0.0413 0.0424,0.1214 0.0693,0.1443 -0.0005,0.0196 0.5883,1.103 0.6413,1.2116z"/>
   <path id="_558302248" class="fil4" d="M53.7932 21.494c-0.6085,-0.351 -0.8166,-1.1292 -0.4655,-1.7373 0.3512,-0.6082 1.1293,-0.8169 1.7374,-0.4658 0.6085,0.3513 0.8166,1.1296 0.4655,1.7375 -0.3514,0.6083 -1.1292,0.8168 -1.7374,0.4656z"/>
   <path id="_558302104" class="fil5" d="M47.7799 15.308c0,0 0.0792,-2.0167 0.2829,-1.6748 0.4704,0.7893 1.046,2.3901 3.4416,2.5626 0.3467,0.0248 -0.613,0.688 -1.3977,0.952 0,0 0.9785,0.6123 3.1517,-0.7585 0.295,-0.1861 0.2649,-0.8509 -0.4313,-0.7977 -0.7476,0.0573 -2.2905,-0.1854 -2.8904,-0.8019 -0.5134,-0.5279 -1.012,-1.5927 -1.484,-2.5447 -0.176,-0.3562 -0.7765,-0.2634 -0.9132,0.2802 0,0 -0.4871,1.5314 0.2404,2.7828z"/>
   <path id="_558301768" class="fil5" d="M51.6571 14.5464c-0.6083,0.3514 -1.3865,0.1429 -1.7373,-0.4653 -0.3513,-0.6083 -0.1429,-1.3864 0.4653,-1.7377 0.6085,-0.3512 1.3863,-0.1423 1.7372,0.4657 0.3512,0.6085 0.143,1.3861 -0.4652,1.7373z"/>
   <path id="_558302008" class="fil6" d="M43.2932 16.6611c0,0 -1.7073,-1.077 -1.3094,-1.0823 0.9191,-0.0127 2.5932,0.2894 3.9403,-1.6991 0.1947,-0.288 0.2892,0.8745 0.1255,1.6862 0,0 1.0198,-0.541 0.919,-3.1086 -0.0134,-0.3484 -0.6045,-0.6546 -0.9063,-0.0252 -0.3243,0.6761 -1.3062,1.891 -2.1398,2.102 -0.7139,0.1807 -1.8856,0.0805 -2.9456,0.0126 -0.3967,-0.0253 -0.6167,0.5411 -0.2139,0.9314 0,0 1.0825,1.1877 2.5302,1.183z"/>
   <path id="_558300688" class="fil6" d="M44.572 12.9228c0.0003,0.7024 -0.5696,1.2717 -1.2717,1.2717 -0.7026,0 -1.272,-0.5693 -1.272,-1.2717 0,-0.6938 0.5557,-1.2578 1.2463,-1.2714l0.051 0c0.6908,0.0136 1.2464,0.5776 1.2464,1.2714z"/>
  </g>
 </g>
</svg>
